<svg xmlns="http://www.w3.org/2000/svg" viewBox="0 0 800 800" fill="none">
  <defs>
    <linearGradient id="brace-sunset" x1="0" y1="0" x2="0" y2="1">
      <stop offset="0%" stop-color="#F97316"/>
      <stop offset="50%" stop-color="#DC2626"/>
      <stop offset="100%" stop-color="#F97316"/>
    </linearGradient>
  </defs>
  <!-- Background -->
  <rect id="bg" width="800" height="800" rx="120" fill="#FDF6EC"/>
  <!-- Left brace } -->
  <path d="M250 200 Q285 200 285 260 L285 340 Q285 400 330 400 Q285 400 285 460 L285 540 Q285 600 250 600"
        stroke="url(#brace-sunset)" stroke-width="44" stroke-linecap="round" fill="none"/>
  <!-- Right brace { -->
  <path d="M550 200 Q515 200 515 260 L515 340 Q515 400 470 400 Q515 400 515 460 L515 540 Q515 600 550 600"
        stroke="url(#brace-sunset)" stroke-width="44" stroke-linecap="round" fill="none"/>
  <!-- Diamond gem -->
  <polygon points="400,300 452,400 400,500 348,400" fill="#E85D26"/>
  <polygon points="400,300 452,400 400,400 348,400" fill="#FF8C42"/>
</svg>
