<svg xmlns="http://www.w3.org/2000/svg" viewBox="0 0 800 800" fill="none">
  <!-- LinkedIn version: square, no rounded corners, bolder for small sizes -->
  <rect width="800" height="800" fill="#111827"/>
  <!-- Left curly brace -->
  <path d="M218 200 Q280 200 280 265 L280 340 Q280 400 245 400 Q280 400 280 460 L280 535 Q280 600 218 600"
        stroke="#F59E0B" stroke-width="44" stroke-linecap="round" fill="none"/>
  <!-- Right curly brace -->
  <path d="M582 200 Q520 200 520 265 L520 340 Q520 400 555 400 Q520 400 520 460 L520 535 Q520 600 582 600"
        stroke="#F59E0B" stroke-width="44" stroke-linecap="round" fill="none"/>
  <!-- Center diamond/gem -->
  <polygon points="400,300 452,400 400,500 348,400" fill="#E5E7EB"/>
  <polygon points="400,300 452,400 400,400 348,400" fill="#F9FAFB"/>
</svg>
