<svg xmlns="http://www.w3.org/2000/svg" viewBox="0 0 512 512" fill="none">
  <!-- Slate: fiery orange braces on cool slate, ice blue gem -->
  <rect width="512" height="512" rx="96" fill="#0F172A"/>
  <!-- Left curly brace -->
  <path d="M140 150 Q180 150 180 190 L180 230 Q180 256 160 256 Q180 256 180 282 L180 322 Q180 362 140 362"
        stroke="#E65100" stroke-width="28" stroke-linecap="round" fill="none"/>
  <!-- Right curly brace -->
  <path d="M372 150 Q332 150 332 190 L332 230 Q332 256 352 256 Q332 256 332 282 L332 322 Q332 362 372 362"
        stroke="#E65100" stroke-width="28" stroke-linecap="round" fill="none"/>
  <!-- Center diamond/gem - cool blue complement -->
  <polygon points="256,200 296,256 256,312 216,256" fill="#93C5FD"/>
  <polygon points="256,200 296,256 256,256 216,256" fill="#BFDBFE"/>
</svg>
