<svg xmlns="http://www.w3.org/2000/svg" viewBox="0 0 512 512" fill="none">
  <!-- Kiln cream + white-hot gem (bright core fading to orange) -->
  <rect width="512" height="512" rx="96" fill="#FDF6EC"/>
  <rect x="6" y="6" width="500" height="500" rx="92" fill="none" stroke="#BF4A1C" stroke-width="3" stroke-opacity="0.15"/>
  <path d="M140 150 Q180 150 180 190 L180 230 Q180 256 160 256 Q180 256 180 282 L180 322 Q180 362 140 362"
        stroke="#BF4A1C" stroke-width="28" stroke-linecap="round" fill="none"/>
  <path d="M372 150 Q332 150 332 190 L332 230 Q332 256 352 256 Q332 256 332 282 L332 322 Q332 362 372 362"
        stroke="#BF4A1C" stroke-width="28" stroke-linecap="round" fill="none"/>
  <!-- Outer glow -->
  <polygon points="256,192 302,256 256,320 210,256" fill="#BF4A1C" opacity="0.25"/>
  <!-- Gem body -->
  <polygon points="256,200 296,256 256,312 216,256" fill="#E85D26"/>
  <polygon points="256,200 296,256 256,256 216,256" fill="#FF8C42"/>
  <!-- White-hot core -->
  <polygon points="256,230 274,256 256,282 238,256" fill="#FFF7ED"/>
</svg>
