<svg xmlns="http://www.w3.org/2000/svg" viewBox="0 0 512 512" fill="none">
  <!-- Sunset gradient braces (coral to amber), simple hot gem -->
  <rect width="512" height="512" rx="96" fill="#FDF6EC"/>
  <defs>
    <linearGradient id="brace-sunset" x1="0" y1="0" x2="0" y2="1">
      <stop offset="0%" stop-color="#F97316"/>
      <stop offset="50%" stop-color="#DC2626"/>
      <stop offset="100%" stop-color="#F97316"/>
    </linearGradient>
  </defs>
  <!-- Left brace { : top-right, kicks left at middle, bottom-right -->
  <path d="M190 150 Q170 150 170 190 L170 225 Q170 256 140 256 Q170 256 170 287 L170 322 Q170 362 190 362"
        stroke="url(#brace-sunset)" stroke-width="28" stroke-linecap="round" fill="none"/>
  <!-- Right brace } : top-left, kicks right at middle, bottom-left -->
  <path d="M322 150 Q342 150 342 190 L342 225 Q342 256 372 256 Q342 256 342 287 L342 322 Q342 362 322 362"
        stroke="url(#brace-sunset)" stroke-width="28" stroke-linecap="round" fill="none"/>
  <polygon points="256,200 296,256 256,312 216,256" fill="#E85D26"/>
  <polygon points="256,200 296,256 256,256 216,256" fill="#FF8C42"/>
</svg>
